<svg xmlns="http://www.w3.org/2000/svg" viewBox="0 0 1172 1006" width="1172" height="1006">
	<defs>
		<clipPath clipPathUnits="userSpaceOnUse" id="cp1">
			<path d="M-353 -203L1477 -203L1477 1205L-353 1205Z" />
		</clipPath>
		<radialGradient id="grd1" gradientUnits="userSpaceOnUse"  cx="594.758" cy="249.268" r="217.759">
			<stop offset="0" stop-color="#70d6df"  />
			<stop offset="1" stop-color="#173ea1"  />
		</radialGradient>
		<linearGradient id="grd2" gradientUnits="userSpaceOnUse"  x1="555.895" y1="251.14" x2="756.12" y2="451.445">
			<stop offset="0" stop-color="#1369a2"  />
			<stop offset="0.001" stop-color="#1369a2"  />
			<stop offset="1" stop-color="#4bcbf3"  />
		</linearGradient>
	</defs>
	<style>
		tspan { white-space:pre }
		.shp0 { fill: url(#grd1) } 
		.shp1 { fill: #bdc7c5 } 
		.shp2 { mix-blend-mode: multiply;fill: url(#grd2) } 
		.shp3 { fill: #ffffff } 
		.shp4 { fill: #3a4243 } 
		.shp5 { fill: #ff5920 } 
	</style>
	<g id="Page 1" clip-path="url(#cp1)">
		<path id="Path 1" class="shp0" d="M559.29 44.98L453.28 165.46C420.36 199.98 401.37 245.44 399.94 293.12C396.75 399.84 480.69 488.94 587.41 492.13C589.44 492.19 591.47 492.22 593.5 492.22C700.23 492.16 786.69 405.58 786.62 298.85L786.64 298.85C786.7 248.66 767.18 200.43 732.22 164.43L593.3 6.31L559.29 44.98Z" />
		<path id="Path 2" fill-rule="evenodd" class="shp1" d="M766.27 221.2C781.24 254.52 786.22 291.46 780.61 327.56C780.55 328.45 780.38 329.42 780.24 330.32C767.88 403.89 713.49 463.37 641.31 482.26C640.6 482.47 639.88 482.64 639.15 482.78C622.29 487.02 604.92 488.88 587.54 488.31C558.97 487.44 530.96 480.12 505.62 466.9C412.72 418.45 376.68 303.87 425.13 210.97C433.42 195.25 443.83 180.75 456.05 167.85L593.29 11.98L729.54 166.96C744.85 182.76 757.29 201.13 766.28 221.21L766.27 221.2ZM593.26 495.9C644.42 495.93 693.6 476.07 730.38 440.49C808.59 364.84 810.67 240.11 735.02 161.9L593.26 0.61L450.58 162.86C416.98 198.07 397.59 244.46 396.16 293.11C392.97 401.87 478.55 492.63 587.31 495.83C589.29 495.89 591.27 495.92 593.25 495.92L593.26 495.9Z" />
		<path id="Path 3" class="shp2" d="M780.63 327.58C780.56 328.47 780.4 329.43 780.26 330.33C767.9 403.91 713.51 463.39 641.33 482.27C640.62 482.49 639.9 482.66 639.17 482.79L517.18 360.8C517.18 254.06 564.84 212.47 665.53 212.47L780.63 327.58Z" />
		<path id="Path 4" fill-rule="evenodd" class="shp3" d="M593.25 183.65C651.19 183.64 698.16 230.59 698.17 288.53L698.17 393.45C668.22 393.45 653.48 385.58 644.86 373.11C630.6 385.77 612.33 392.97 593.27 393.45C535.94 393.04 489.55 346.68 489.12 289.34C488.68 231.41 535.29 184.09 593.23 183.65L593.25 183.65ZM635.22 288.53L635.22 288.51C635.21 265.33 616.41 246.55 593.23 246.56C570.05 246.57 551.27 265.37 551.28 288.55C551.29 311.73 570.09 330.51 593.27 330.5C616.44 330.49 635.22 311.7 635.22 288.53Z" />
		<path id="Path 6" fill-rule="evenodd" class="shp4" d="M32.57 643.12C32.12 643.12 31.97 643.27 31.81 643.57C27.55 655.14 22.38 669.89 20.56 676.89C18.58 676.74 16.45 676.59 11.88 676.59C7.02 676.59 2.3 676.89 0.63 677.19C4.73 669.13 10.97 655.59 18.58 638.1L49 567.2C51.59 561.57 52.35 559.9 53.42 559.9C54.33 559.9 55.39 561.27 57.98 567.2C59.96 571.62 75.32 605.54 88.56 635.97C95.71 652.09 104.23 670.5 108.64 676.89C104.68 676.74 100.73 676.59 98.75 676.59C93.27 676.59 87.04 676.89 84.6 677.19C82.02 670.19 75.17 653.46 70.91 643.57C70.76 643.27 70.76 643.12 70.3 643.12L32.57 643.12ZM65.59 630.64C66.04 630.64 66.19 630.49 66.04 630.03L50.83 592.3L36.38 630.03C36.23 630.49 36.23 630.64 36.68 630.64L65.59 630.64ZM137.54 620.3C137.54 591.09 157.47 559.9 199 559.9C235.97 559.9 258.33 585.46 258.33 617.1C258.33 639.01 249.36 656.05 233.69 667.76L253.77 678.71C282.98 694.84 300.93 700.47 320.4 700.47C330.14 700.47 341.24 699.4 351.13 695.45C350.53 697.58 349.61 703.21 349.31 705.19C338.2 712.49 322.53 714.47 310.36 714.47C288.46 714.47 269.59 707.32 238.86 689.06L216.65 675.82C209.2 678.71 202.96 679.17 197.03 679.17C154.13 679.17 137.54 646.31 137.54 620.3ZM236.73 621.36C236.73 594.28 221.06 571.77 195.2 571.77C174.05 571.77 158.99 588.05 159.15 615.89C159.15 644.79 174.66 667.15 200.98 667.15C215.59 667.15 236.73 657.26 236.73 621.36ZM312.49 562.49C318.73 562.49 323.75 562.34 326.49 561.88C325.73 567.2 324.96 584.55 324.96 606.15L324.96 626.38C324.96 645.25 328.77 653.01 335.46 658.63C342 664.26 350.07 665.02 355.85 665.02C361.63 665.02 369.69 663.5 374.86 658.18C382.62 650.72 383.99 641.29 383.99 622.43L383.99 606.15C383.99 584.39 382.93 567.96 382.01 562.18C383.99 562.34 387.95 562.49 390.23 562.49C395.1 562.49 399.51 562.18 400.73 561.88C399.81 567.2 398.9 584.55 398.9 606.15L398.9 622.58C398.9 640.38 397.68 657.87 383.84 669.44C374.71 677.35 362.85 679.17 352.65 679.17C340.63 679.17 327.55 676.74 319.03 668.98C311.27 662.13 305.8 652.25 305.8 630.34L305.8 606.15C305.8 584.39 304.88 566.9 303.82 562.18C305.8 562.34 309.29 562.49 312.49 562.49ZM465.08 643.12C464.62 643.12 464.47 643.27 464.32 643.57C460.06 655.14 454.88 669.89 453.06 676.89C451.08 676.74 448.95 676.59 444.39 676.59C439.52 676.59 434.8 676.89 433.13 677.19C437.24 669.13 443.47 655.59 451.08 638.1L481.51 567.2C484.09 561.57 484.85 559.9 485.92 559.9C486.83 559.9 487.9 561.27 490.48 567.2C492.46 571.62 507.83 605.54 521.06 635.97C528.21 652.09 536.73 670.5 541.14 676.89C537.19 676.74 533.23 676.59 531.25 676.59C525.78 676.59 519.54 676.89 517.11 677.19C514.52 670.19 507.67 653.46 503.41 643.57C503.26 643.27 503.26 643.12 502.8 643.12L465.08 643.12ZM498.09 630.64C498.55 630.64 498.7 630.49 498.55 630.03L483.33 592.3L468.88 630.03C468.73 630.49 468.73 630.64 469.18 630.64L498.09 630.64ZM676.99 659.24C676.99 667.3 676.99 670.96 677.14 672.78C668.02 676.28 651.43 679.17 637.74 679.17C614.62 679.17 595.45 671.72 583.58 657.57C575.67 648.29 570.04 635.21 570.04 618.62C570.04 593.52 582.82 578.61 595.3 570.86C610.97 560.51 628.31 559.9 639.11 559.9C657.97 559.9 673.34 565.07 677.6 565.68C676.84 569.03 675.47 578.92 675.47 586.37C670.91 581.2 657.06 572.53 634.7 572.53C621.77 572.53 611.57 576.33 603.97 583.48C596.67 590.48 591.65 601.74 591.65 615.28C591.65 629.42 596.36 640.68 602.14 647.37C612.34 660.76 627.09 666.09 640.78 666.09C646.41 666.09 654.02 665.17 657.37 663.2C657.67 662.89 657.82 661.68 657.82 658.94L657.82 643.88C657.82 633.23 656.61 623.64 655.69 619.99C658.28 620.3 662.69 620.45 666.04 620.45C672.43 620.45 675.77 619.99 678.06 619.84C677.6 623.49 676.99 634.44 676.99 647.98L676.99 659.24ZM734.5 562.49C740.73 562.49 745.75 562.34 748.49 561.88C747.73 567.2 746.97 584.55 746.97 606.15L746.97 626.38C746.97 645.25 750.77 653.01 757.47 658.63C764.01 664.26 772.07 665.02 777.85 665.02C783.63 665.02 791.7 663.5 796.87 658.18C804.63 650.72 806 641.29 806 622.43L806 606.15C806 584.39 804.93 567.96 804.02 562.18C806 562.34 809.95 562.49 812.23 562.49C817.1 562.49 821.52 562.18 822.73 561.88C821.82 567.2 820.91 584.55 820.91 606.15L820.91 622.58C820.91 640.38 819.69 657.87 805.85 669.44C796.72 677.35 784.85 679.17 774.66 679.17C762.64 679.17 749.56 676.74 741.04 668.98C733.28 662.13 727.8 652.25 727.8 630.34L727.8 606.15C727.8 584.39 726.89 566.9 725.82 562.18C727.8 562.34 731.3 562.49 734.5 562.49ZM874.91 606.15C874.91 584.39 874.45 567.05 873.24 562.18C874.91 562.49 879.32 562.49 882.37 562.49C889.06 562.49 893.93 562.18 895.45 561.88C894.84 567.66 894.08 584.55 894.08 606.15L894.08 632.93C894.08 651.18 894.69 672.33 895.75 676.89C894.08 676.74 890.28 676.59 886.32 676.59C881.76 676.59 875.52 676.89 873.54 677.19C874.3 671.11 874.91 652.4 874.91 632.93L874.91 606.15ZM954.17 606C954.17 579.98 953.26 566.75 952.34 562.18C954.02 562.33 958.43 562.49 962.23 562.49C966.34 562.49 975.32 562.03 986.88 561.88C1009.7 562.03 1030.54 565.23 1044.99 579.83C1052.6 587.59 1059.44 600.22 1059.44 618.32C1059.44 637.33 1051.69 651.79 1043.01 660.61C1034.95 668.67 1021.11 678.41 993.88 678.41C987.49 678.41 981.25 678.11 976.08 677.65C967.86 677.04 961.93 676.13 952.95 676.74C953.41 670.04 954.17 656.35 954.17 633.53L954.17 606ZM973.34 626.53C973.34 642.66 973.49 651.33 973.64 654.98C973.8 659.55 973.95 662.13 974.71 662.89C976.69 664.57 985.05 666.54 995.55 666.54C1006.81 666.54 1017.61 664.11 1025.97 656.35C1034.04 648.9 1038.75 636.42 1038.75 622.27C1038.75 610.56 1036.47 599.61 1029.17 590.02C1019.89 578.16 1004.07 573.14 986.88 573.14C981.4 573.14 976.38 573.74 974.25 574.35C973.8 574.66 973.64 574.96 973.64 575.42C973.34 578.46 973.34 590.33 973.34 604.78L973.34 626.53ZM1107.52 606.15C1107.52 581.2 1106.76 566.75 1105.54 562.18C1108.13 562.49 1113.3 562.49 1117.56 562.49L1153.16 562.49C1157.42 562.49 1164.26 562.49 1167.15 561.57C1166.54 564.62 1165.63 571.31 1165.63 578.61C1163.35 577.25 1159.85 576.33 1151.48 575.57C1146.46 575.27 1137.03 574.96 1127.14 574.96C1126.99 574.96 1126.53 575.11 1126.53 575.42L1126.53 609.19C1126.53 609.65 1126.84 609.95 1127.14 609.95C1130.03 609.95 1145.55 609.95 1150.57 609.8C1159.55 609.5 1162.59 609.04 1164.41 608.43C1163.5 613.3 1162.89 621.52 1163.05 625.62C1160.46 624.25 1157.72 623.34 1151.33 622.88C1146.31 622.58 1130.64 622.27 1127.14 622.27C1126.84 622.27 1126.53 622.58 1126.53 622.88L1126.53 631.25C1126.53 658.18 1126.84 662.28 1127.6 662.89C1128.06 663.35 1129.73 663.81 1131.1 663.96C1135.21 664.42 1139.31 664.57 1145.7 664.57C1158.79 664.57 1166.54 663.5 1171.72 661.07C1170.2 665.94 1168.67 673.09 1168.06 677.04C1167.46 677.5 1165.48 677.65 1159.55 677.65C1139.01 677.65 1127.14 676.59 1118.93 676.59C1112.84 676.59 1108.13 676.74 1106 677.04C1106.45 671.41 1107.52 655.14 1107.52 632.93L1107.52 606.15Z" />
	</g>
</svg>